HIERARCHY
ROOT ui
{
	 OFFSET 0 0 0
	 CHANNELS 3 XPosition YPosition Z Position
	 EndSite
	 {
	 OFFSET 0 -1 0
	 }
}
ROOT li
{
	 OFFSET 0 0 0
	 CHANNELS 3 XPosition YPosition Z Position
	 EndSite
	 {
	 OFFSET 0 -1 0
	 }
}
ROOT ul
{
	 OFFSET 0 0 0
	 CHANNELS 3 XPosition YPosition Z Position
	 EndSite
	 {
	 OFFSET 0 -1 0
	 }
}
ROOT ll
{
	 OFFSET 0 0 0
	 CHANNELS 3 XPosition YPosition Z Position
	 EndSite
	 {
	 OFFSET 0 -1 0
	 }
}
ROOT tt
{
	 OFFSET 0 0 0
	 CHANNELS 3 XPosition YPosition Z Position
	 EndSite
	 {
	 OFFSET 0 -1 0
	 }
}
ROOT tb
{
	 OFFSET 0 0 0
	 CHANNELS 3 XPosition YPosition Z Position
	 EndSite
	 {
	 OFFSET 0 -1 0
	 }
}
ROOT td
{
	 OFFSET 0 0 0
	 CHANNELS 3 XPosition YPosition Z Position
	 EndSite
	 {
	 OFFSET 0 -1 0
	 }
}
ROOT v
{
	 OFFSET 0 0 0
	 CHANNELS 3 XPosition YPosition Z Position
	 EndSite
	 {
	 OFFSET 0 -1 0
	 }
}
ROOT bn
{
	 OFFSET 0 0 0
	 CHANNELS 3 XPosition YPosition Z Position
	 EndSite
	 {
	 OFFSET 0 -1 0
	 }
}
MOTION
Frames: 21
Frame Time: 0.002
0.003572248935699463	3.6338001489639283E-4	0		0.4962740783691406	-2.413226806640625	0		-0.9651224365234375	0.025195831298828124	0		-0.7331754150390625	-2.27603369140625	0		1.6874620361328125	-0.70625048828125	0		3.394320068359375	-0.24208926391601562	0		4.8539794921875	-0.17595172119140626	0		5.60018701171875	0.07082659912109375	0		0.012441964149475097	5.95442919921875	0		
0.012665089607238769	0.0012511429786682129	0		0.49721856689453126	-2.411984375	0		-1.036142822265625	0.021352991104125977	0		-0.801104248046875	-2.265837890625	0		1.6567513427734375	-0.7069645385742187	0		3.39774072265625	-0.2278892822265625	0		4.8630537109375	-0.17735523986816407	0		5.5975185546875	0.08692377471923828	0		-0.12303588104248046	5.93318115234375	0		
0.021974348068237306	0.010163849830627441	0		0.5090359802246094	-2.4189423828125	0		-0.956992431640625	0.02152433967590332	0		-0.7872975463867188	-2.271279541015625	0		1.6671046142578125	-0.707507568359375	0		3.39675439453125	-0.236617919921875	0		4.8564072265625	-0.16746784973144532	0		5.6066005859375	0.08774758911132813	0		0.006478783130645752	5.95263232421875	0		
-0.004822535991668701	0.010815812110900878	0		0.49916958618164065	-2.41144287109375	0		-1.033802978515625	0.02182742118835449	0		-0.79721240234375	-2.26420556640625	0		1.661636474609375	-0.701724853515625	0		3.400304931640625	-0.22144412231445312	0		4.85564404296875	-0.16673426818847656	0		5.60575341796875	0.08872742462158204	0		0.0037067859172821046	5.9517734375	0		
0.020406587600708008	0.008497036933898926	0		0.5261348266601562	-2.414623291015625	0		-0.96264306640625	0.015308094024658204	0		-0.7633516845703125	-2.270923828125	0		1.6608629150390626	-0.715024169921875	0		3.410341064453125	-0.23641128540039064	0		4.86766259765625	-0.18128578186035157	0		5.61398046875	0.08948363494873048	0		-0.1322705993652344	5.9325029296875	0		
-0.01336849308013916	0.002353741884231567	0		0.49718255615234375	-2.414694580078125	0		-1.045185302734375	0.02179763603210449	0		-0.8033817749023437	-2.27316552734375	0		1.6845535888671874	-0.7077628173828125	0		3.364941162109375	-0.22533735656738282	0		4.8543349609375	-0.16538835144042968	0		5.6042900390625	0.09052719116210937	0		-0.13371333312988282	5.92967333984375	0		
0.019151874542236328	0.007017374992370606	0		0.5070885009765626	-2.424461669921875	0		-0.959827880859375	0.01719674301147461	0		-0.79925341796875	-2.269178955078125	0		1.6569625244140624	-0.7185184326171875	0		3.39907763671875	-0.24378404235839843	0		4.8555166015625	-0.1798160400390625	0		5.61332568359375	0.07215646362304687	0		-0.13397357177734376	5.925880859375	0		
-0.004275396823883056	0.01078076171875	0		0.48638516235351564	-2.414612548828125	0		-1.02534228515625	0.01648284339904785	0		-0.7930737915039062	-2.26415380859375	0		1.6648232421875	-0.7089099731445313	0		3.405239990234375	-0.21070262145996094	0		4.86227783203125	-0.16738140869140625	0		5.60728173828125	0.09901832580566407	0		-0.004537615776062012	5.94778125	0		
0.018225584030151367	0.00576143217086792	0		0.5285376586914062	-2.414862060546875	0		-0.960759033203125	0.015465694427490234	0		-0.7950032958984375	-2.26690478515625	0		1.6538045654296876	-0.695928955078125	0		3.389328369140625	-0.24023739624023438	0		4.8529521484375	-0.16369113159179688	0		5.60271240234375	0.09279311370849609	0		-0.007323400974273682	5.94819482421875	0		
-0.008093340873718262	0.0066857018470764164	0		0.49971710205078124	-2.414775390625	0		-0.97108251953125	0.015895445823669432	0		-0.7609368896484375	-2.27222509765625	0		1.6941597900390626	-0.7218493041992188	0		3.37227490234375	-0.22675753784179686	0		4.8485224609375	-0.17012852478027343	0		5.60235302734375	0.09344288635253906	0		-0.00893057918548584	5.9476494140625	0		
0.013569260597229004	0.0018091470003128052	0		0.5248309326171875	-2.420606201171875	0		-0.9654368896484375	0.010115185737609863	0		-0.79875244140625	-2.272187744140625	0		1.6560789794921875	-0.7193362426757812	0		3.403804443359375	-0.24115402221679688	0		4.85415087890625	-0.1777801971435547	0		5.60207275390625	0.09404214477539062	0		-0.1427313995361328	5.92649755859375	0		
0.0012774490118026734	-0.004409884929656983	0		0.4810203552246094	-2.42317626953125	0		-1.0375458984375	0.014773383140563964	0		-0.7866500244140625	-2.27896875	0		1.6560164794921874	-0.7194788208007813	0		3.387063232421875	-0.2176968078613281	0		4.8522568359375	-0.16233050537109375	0		5.591869140625	0.09476499176025391	0		-0.17803895568847655	5.9216357421875	0		
0.017311613082885743	0.003930146932601929	0		0.5004163513183594	-2.415812744140625	0		-1.03766845703125	0.014229229927062988	0		-0.7942379150390625	-2.26933642578125	0		1.659060791015625	-0.7166526489257813	0		3.40357568359375	-0.24083790588378906	0		4.85216162109375	-0.16195025634765625	0		5.601732421875	0.09508787536621094	0		0.0025606191158294676	5.95708154296875	0		
-0.008727304458618164	0.0050459160804748535	0		0.5027299499511719	-2.414111083984375	0		-1.0377298583984376	0.013749855995178223	0		-0.7580186767578125	-2.272400634765625	0		1.65605078125	-0.71970166015625	0		3.396912353515625	-0.21957693481445312	0		4.85796923828125	-0.17070529174804688	0		5.61065869140625	0.09538505554199218	0		-0.013521489143371581	5.9460078125	0		
0.023037717819213866	-0.008789929389953613	0		0.5009899291992187	-2.416303955078125	0		-0.9717317504882812	0.013202771186828614	0		-0.7957369995117187	-2.27213623046875	0		1.650236328125	-0.713683349609375	0		3.3977099609375	-0.23245799255371094	0		4.8521376953125	-0.16128752136230468	0		5.60164013671875	0.09594937896728516	0		-0.014271767616271972	5.9457158203125	0		
-0.012769871711730958	5.717880129814148E-4	0		0.4992564697265625	-2.41846484375	0		-0.9716996459960937	0.01284514045715332	0		-0.7594918212890625	-2.275085205078125	0		1.653178466796875	-0.7238011474609375	0		3.37790771484375	-0.22399520874023438	0		4.85393408203125	-0.17603422546386718	0		5.6016630859375	0.09631715393066406	0		-0.14726564025878905	5.92470703125	0		
-0.012706642150878905	3.563559949398041E-4	0		0.5114501037597656	-2.42483251953125	0		-1.0416951904296874	0.00971881103515625	0		-0.795170166015625	-2.272765380859375	0		1.6533115234375	-0.7238558349609375	0		3.39460205078125	-0.24716708374023438	0		4.85811474609375	-0.1698485107421875	0		5.60653076171875	0.08556055450439454	0		-0.130641357421875	5.9321904296875	0		
0.0012728739976882934	-0.006059957981109619	0		0.5246659545898438	-2.4291884765625	0		-0.955659423828125	0.006007208824157715	0		-0.7789171142578125	-2.274281494140625	0		1.6595709228515625	-0.71700048828125	0		3.3971748046875	-0.21910211181640624	0		4.8613115234375	-0.16367497253417967	0		5.6166044921875	0.085679931640625	0		-0.1462371826171875	5.921251953125	0		
-0.00541632080078125	0.006904695987701416	0		0.5062198486328126	-2.411986083984375	0		-0.9614833374023437	0.010887317657470703	0		-0.7885260620117187	-2.266322021484375	0		1.6566649169921874	-0.7199810180664062	0		3.364986328125	-0.2364705505371094	0		4.85831591796875	-0.16942437744140626	0		5.60187646484375	0.09718317413330078	0		-0.017138412475585937	5.9459306640625	0		
-0.008372183799743652	0.0038318500518798827	0		0.5293443603515625	-2.41945947265625	0		-0.9713718872070313	0.011870965003967286	0		-0.7584448852539063	-2.275992431640625	0		1.6537376708984375	-0.7239501953125	0		3.389208251953125	-0.22978457641601563	0		4.848455078125	-0.16707847595214845	0		5.59783154296875	0.08947682189941407	0		-0.016431325912475585	5.9447900390625	0		
0.0015497210025787354	-0.006431455135345459	0		0.5005682983398437	-2.4190478515625	0		-0.9712830200195313	0.01172037696838379	0		-0.7582327270507813	-2.276131591796875	0		1.648983154296875	-0.7168772583007812	0		3.385061767578125	-0.24463165283203125	0		4.854419921875	-0.17501387023925782	0		5.5920498046875	0.09777883148193359	0		-0.016662275314331055	5.94469091796875	0		
